<mxfile host="app.diagrams.net" modified="2023-09-13T14:29:26.147Z" agent="Mozilla/5.0 (Windows NT 10.0; Win64; x64) AppleWebKit/537.36 (KHTML, like Gecko) Chrome/116.0.0.0 Safari/537.36 Edg/116.0.1938.69" etag="MxuMyimhKpDRPADW0THR" version="21.7.5" type="github">
  <diagram name="Página-1" id="zK9xxA8E1CvqSJLTD-Si">
    <mxGraphModel dx="1323" dy="730" grid="1" gridSize="10" guides="1" tooltips="1" connect="1" arrows="1" fold="1" page="1" pageScale="1" pageWidth="1169" pageHeight="827" math="0" shadow="0">
      <root>
        <mxCell id="0" />
        <mxCell id="1" parent="0" />
        <mxCell id="3-UhuKc8RvOaN5Qhqy8b-1" value="Florianópolis" style="ellipse;whiteSpace=wrap;html=1;fillColor=#d5e8d4;strokeColor=#82b366;" vertex="1" parent="1">
          <mxGeometry x="810" y="550" width="120" height="80" as="geometry" />
        </mxCell>
        <mxCell id="3-UhuKc8RvOaN5Qhqy8b-2" value="Planalto" style="ellipse;whiteSpace=wrap;html=1;fillColor=#fff2cc;strokeColor=#d6b656;" vertex="1" parent="1">
          <mxGeometry x="560" y="520" width="120" height="80" as="geometry" />
        </mxCell>
        <mxCell id="3-UhuKc8RvOaN5Qhqy8b-3" value="Meio Oeste" style="ellipse;whiteSpace=wrap;html=1;fillColor=#f5f5f5;fontColor=#333333;strokeColor=#666666;" vertex="1" parent="1">
          <mxGeometry x="400" y="490" width="120" height="80" as="geometry" />
        </mxCell>
        <mxCell id="3-UhuKc8RvOaN5Qhqy8b-4" value="Extremo Oeste" style="ellipse;whiteSpace=wrap;html=1;fillColor=#e1d5e7;strokeColor=#9673a6;" vertex="1" parent="1">
          <mxGeometry x="270" y="310" width="120" height="80" as="geometry" />
        </mxCell>
        <mxCell id="3-UhuKc8RvOaN5Qhqy8b-5" value="Vale" style="ellipse;whiteSpace=wrap;html=1;fillColor=#f8cecc;strokeColor=#b85450;" vertex="1" parent="1">
          <mxGeometry x="790" y="360" width="120" height="80" as="geometry" />
        </mxCell>
        <mxCell id="3-UhuKc8RvOaN5Qhqy8b-6" value="Norte" style="ellipse;whiteSpace=wrap;html=1;fillColor=#dae8fc;strokeColor=#6c8ebf;" vertex="1" parent="1">
          <mxGeometry x="630" y="260" width="120" height="80" as="geometry" />
        </mxCell>
        <mxCell id="3-UhuKc8RvOaN5Qhqy8b-7" value="" style="shape=link;html=1;rounded=0;entryX=0;entryY=0.5;entryDx=0;entryDy=0;exitX=1.02;exitY=0.625;exitDx=0;exitDy=0;exitPerimeter=0;" edge="1" parent="1" source="3-UhuKc8RvOaN5Qhqy8b-2" target="3-UhuKc8RvOaN5Qhqy8b-1">
          <mxGeometry width="100" relative="1" as="geometry">
            <mxPoint x="700" y="559.5" as="sourcePoint" />
            <mxPoint x="800" y="559.5" as="targetPoint" />
          </mxGeometry>
        </mxCell>
        <mxCell id="3-UhuKc8RvOaN5Qhqy8b-8" value="&lt;b&gt;&lt;font color=&quot;#ffd966&quot;&gt;OAS&lt;/font&gt;-&lt;font color=&quot;#97d077&quot;&gt;TSL&lt;/font&gt;&lt;br&gt;&lt;font color=&quot;#ffd966&quot;&gt;BJS&lt;/font&gt;-&lt;font color=&quot;#97d077&quot;&gt;JLA&lt;/font&gt;&lt;/b&gt;" style="text;html=1;align=center;verticalAlign=middle;resizable=0;points=[];autosize=1;strokeColor=none;fillColor=none;" vertex="1" parent="1">
          <mxGeometry x="690" y="520" width="80" height="40" as="geometry" />
        </mxCell>
        <mxCell id="3-UhuKc8RvOaN5Qhqy8b-13" value="" style="shape=link;html=1;rounded=0;entryX=0.5;entryY=0;entryDx=0;entryDy=0;" edge="1" parent="1" source="3-UhuKc8RvOaN5Qhqy8b-5" target="3-UhuKc8RvOaN5Qhqy8b-1">
          <mxGeometry width="100" relative="1" as="geometry">
            <mxPoint x="690" y="510" as="sourcePoint" />
            <mxPoint x="790" y="510" as="targetPoint" />
          </mxGeometry>
        </mxCell>
        <mxCell id="3-UhuKc8RvOaN5Qhqy8b-14" value="&lt;b&gt;&lt;font color=&quot;#f19c99&quot;&gt;BIG&lt;/font&gt;&lt;font color=&quot;#b9e0a5&quot;&gt;-&lt;/font&gt;&lt;font color=&quot;#b9e0a5&quot;&gt;FLO&lt;/font&gt;&lt;br&gt;&lt;font color=&quot;#f19c99&quot;&gt;BIG&lt;/font&gt;&lt;font color=&quot;#b9e0a5&quot;&gt;-&lt;/font&gt;&lt;font color=&quot;#b9e0a5&quot;&gt;SJR&lt;/font&gt;&lt;/b&gt;" style="text;html=1;align=center;verticalAlign=middle;resizable=0;points=[];autosize=1;strokeColor=none;fillColor=none;" vertex="1" parent="1">
          <mxGeometry x="860" y="440" width="70" height="40" as="geometry" />
        </mxCell>
        <mxCell id="3-UhuKc8RvOaN5Qhqy8b-16" value="" style="shape=link;html=1;rounded=0;exitX=0.94;exitY=0.713;exitDx=0;exitDy=0;exitPerimeter=0;" edge="1" parent="1" source="3-UhuKc8RvOaN5Qhqy8b-6" target="3-UhuKc8RvOaN5Qhqy8b-5">
          <mxGeometry width="100" relative="1" as="geometry">
            <mxPoint x="790" y="350" as="sourcePoint" />
            <mxPoint x="790" y="450" as="targetPoint" />
          </mxGeometry>
        </mxCell>
        <mxCell id="3-UhuKc8RvOaN5Qhqy8b-17" value="" style="shape=link;html=1;rounded=0;entryX=0;entryY=0.5;entryDx=0;entryDy=0;exitX=1;exitY=0.5;exitDx=0;exitDy=0;" edge="1" parent="1" source="3-UhuKc8RvOaN5Qhqy8b-3" target="3-UhuKc8RvOaN5Qhqy8b-2">
          <mxGeometry width="100" relative="1" as="geometry">
            <mxPoint x="479.999999999999" y="519.5" as="sourcePoint" />
            <mxPoint x="590" y="550" as="targetPoint" />
          </mxGeometry>
        </mxCell>
        <mxCell id="3-UhuKc8RvOaN5Qhqy8b-18" value="" style="shape=link;html=1;rounded=0;entryX=0.5;entryY=0;entryDx=0;entryDy=0;exitX=0.5;exitY=1;exitDx=0;exitDy=0;" edge="1" parent="1" source="3-UhuKc8RvOaN5Qhqy8b-4" target="3-UhuKc8RvOaN5Qhqy8b-3">
          <mxGeometry width="100" relative="1" as="geometry">
            <mxPoint x="410" y="350" as="sourcePoint" />
            <mxPoint x="500" y="410" as="targetPoint" />
          </mxGeometry>
        </mxCell>
        <mxCell id="3-UhuKc8RvOaN5Qhqy8b-20" value="&lt;b&gt;&lt;font color=&quot;#ffd966&quot;&gt;LVR&lt;/font&gt;-SJI&lt;br&gt;&lt;font color=&quot;#ffd966&quot;&gt;LVR&lt;/font&gt;-CNE&lt;/b&gt;" style="text;html=1;align=center;verticalAlign=middle;resizable=0;points=[];autosize=1;strokeColor=none;fillColor=none;" vertex="1" parent="1">
          <mxGeometry x="530" y="480" width="80" height="40" as="geometry" />
        </mxCell>
        <mxCell id="3-UhuKc8RvOaN5Qhqy8b-21" value="&lt;b&gt;&lt;font color=&quot;#b5739d&quot;&gt;XXE&lt;/font&gt; - PSA 1&lt;br&gt;&lt;font color=&quot;#b5739d&quot;&gt;XXE &lt;/font&gt;- PSA 2&lt;/b&gt;" style="text;html=1;align=center;verticalAlign=middle;resizable=0;points=[];autosize=1;strokeColor=none;fillColor=none;" vertex="1" parent="1">
          <mxGeometry x="360" y="370" width="90" height="40" as="geometry" />
        </mxCell>
        <mxCell id="3-UhuKc8RvOaN5Qhqy8b-22" value="" style="shape=link;html=1;rounded=0;exitX=0.5;exitY=1;exitDx=0;exitDy=0;entryX=0;entryY=0.5;entryDx=0;entryDy=0;" edge="1" parent="1" source="3-UhuKc8RvOaN5Qhqy8b-6" target="3-UhuKc8RvOaN5Qhqy8b-5">
          <mxGeometry width="100" relative="1" as="geometry">
            <mxPoint x="580" y="430" as="sourcePoint" />
            <mxPoint x="680" y="430" as="targetPoint" />
          </mxGeometry>
        </mxCell>
        <mxCell id="3-UhuKc8RvOaN5Qhqy8b-23" value="&lt;b&gt;&lt;span style=&quot;color: rgb(241, 156, 153);&quot;&gt;ITA&lt;/span&gt;&lt;font color=&quot;#a9c4eb&quot;&gt;-AHG&lt;/font&gt;&lt;br&gt;&lt;span style=&quot;color: rgb(241, 156, 153);&quot;&gt;ITA&lt;/span&gt;&lt;font color=&quot;#9ac7bf&quot;&gt;-PCS&lt;/font&gt;&lt;/b&gt;" style="text;html=1;align=center;verticalAlign=middle;resizable=0;points=[];autosize=1;strokeColor=none;fillColor=none;" vertex="1" parent="1">
          <mxGeometry x="770" y="310" width="70" height="40" as="geometry" />
        </mxCell>
        <mxCell id="3-UhuKc8RvOaN5Qhqy8b-24" value="Extremo Norte" style="ellipse;whiteSpace=wrap;html=1;fillColor=#ffe6cc;strokeColor=#d79b00;" vertex="1" parent="1">
          <mxGeometry x="440" y="210" width="120" height="80" as="geometry" />
        </mxCell>
        <mxCell id="3-UhuKc8RvOaN5Qhqy8b-25" value="" style="shape=link;html=1;rounded=0;exitX=1;exitY=0.5;exitDx=0;exitDy=0;entryX=-0.007;entryY=0.374;entryDx=0;entryDy=0;entryPerimeter=0;" edge="1" parent="1" source="3-UhuKc8RvOaN5Qhqy8b-24" target="3-UhuKc8RvOaN5Qhqy8b-6">
          <mxGeometry width="100" relative="1" as="geometry">
            <mxPoint x="570" y="330" as="sourcePoint" />
            <mxPoint x="670" y="330" as="targetPoint" />
          </mxGeometry>
        </mxCell>
        <mxCell id="3-UhuKc8RvOaN5Qhqy8b-26" value="&lt;b&gt;&lt;font style=&quot;&quot; color=&quot;#a9c4eb&quot;&gt;SBS-&lt;/font&gt;&lt;font style=&quot;&quot; color=&quot;#ffd966&quot;&gt;RNO 1&lt;/font&gt;&lt;br&gt;&lt;span style=&quot;border-color: var(--border-color);&quot;&gt;&lt;font style=&quot;border-color: var(--border-color);&quot; color=&quot;#a9c4eb&quot;&gt;SBS-&lt;/font&gt;&lt;font color=&quot;#ffd966&quot; style=&quot;border-color: var(--border-color);&quot;&gt;RNO 2&lt;/font&gt;&lt;/span&gt;&lt;/b&gt;&lt;b style=&quot;&quot;&gt;&lt;font color=&quot;#ffe599&quot;&gt;&lt;br&gt;&lt;/font&gt;&lt;/b&gt;" style="text;html=1;align=center;verticalAlign=middle;resizable=0;points=[];autosize=1;strokeColor=none;fillColor=none;" vertex="1" parent="1">
          <mxGeometry x="570" y="220" width="90" height="40" as="geometry" />
        </mxCell>
        <mxCell id="3-UhuKc8RvOaN5Qhqy8b-27" value="&lt;b&gt;&lt;font style=&quot;font-size: 35px;&quot;&gt;Cálculo de Perdas AT - Regiões de Cálculo&lt;/font&gt;&lt;/b&gt;" style="text;html=1;align=center;verticalAlign=middle;resizable=0;points=[];autosize=1;strokeColor=none;fillColor=none;" vertex="1" parent="1">
          <mxGeometry x="210" y="70" width="730" height="60" as="geometry" />
        </mxCell>
        <mxCell id="3-UhuKc8RvOaN5Qhqy8b-28" value="&lt;b&gt;&lt;font style=&quot;&quot; color=&quot;#a9c4eb&quot;&gt;BLU&lt;/font&gt;&lt;font style=&quot;&quot; color=&quot;#f19c99&quot;&gt;-BND 1&lt;/font&gt;&lt;br&gt;&lt;span style=&quot;border-color: var(--border-color);&quot;&gt;&lt;font color=&quot;#a9c4eb&quot;&gt;BLU&lt;/font&gt;&lt;/span&gt;&lt;span style=&quot;border-color: var(--border-color); color: rgb(241, 156, 153);&quot;&gt;-BND 2&lt;/span&gt;&lt;/b&gt;" style="text;html=1;align=center;verticalAlign=middle;resizable=0;points=[];autosize=1;strokeColor=none;fillColor=none;" vertex="1" parent="1">
          <mxGeometry x="670" y="374" width="90" height="40" as="geometry" />
        </mxCell>
      </root>
    </mxGraphModel>
  </diagram>
</mxfile>
